<?xml version="1.0" encoding="UTF-8"?> <svg xmlns="http://www.w3.org/2000/svg" viewBox="1950 2450 100 100" width="100" height="100"><path fill="#e5c5d0" stroke="none" fill-opacity="1" stroke-width="1" stroke-opacity="1" color="rgb(51, 51, 51)" fill-rule="evenodd" id="tSvg1139d50b699" d="M 2031.27 2487.463 C 2031.405 2470.22 2017.4859999999999 2456.083 2000.242 2455.948 C 1991.914 2455.891 1984.013 2459.074 1978.061 2464.935 C 1972.109 2470.795 1968.795 2478.623 1968.73 2486.976 C 1968.636 2499.072 1975.56 2510.13 1986.417 2515.375 C 1986.4353333333333 2524.435 1986.4536666666668 2533.495 1986.472 2542.555 C 1986.4719983374894 2543.382943546023 1987.1440581173138 2544.0536596078223 1987.972 2544.052 C 1988.35 2544.052 1988.722 2543.909 1989.007 2543.638 C 1992.6 2540.2163333333333 1996.193 2536.7946666666667 1999.786 2533.373 C 2003.393 2536.7806666666665 2007 2540.1883333333335 2010.607 2543.596 C 2011.44643386744 2544.3888960307177 2012.8294151646255 2543.9757422310786 2013.0963663360671 2542.85232316172 C 2013.1235611934903 2542.7378781819407 2013.1371994575816 2542.6206315173904 2013.137 2542.503 C 2013.119 2533.537333333333 2013.101 2524.5716666666667 2013.083 2515.6059999999998C 2024.064 2510.539 2031.175 2499.613 2031.27 2487.463Z M 2000.812 2530.215 C 2000.2319551194134 2529.6674133491542 1999.324919134726 2529.669170319647 1998.747 2530.219 C 1995.6533333333334 2533.1653333333334 1992.5596666666668 2536.1116666666667 1989.466 2539.058 C 1989.451 2531.587 1989.436 2524.116 1989.421 2516.645 C 1992.736247799032 2517.840955614555 1996.2307159642423 2518.464508444793 1999.755 2518.489 C 1999.839 2518.4893333333334 1999.923 2518.489666666667 2000.007 2518.49 C 2003.436290334672 2518.492253959972 2006.842304388217 2517.9269493982547 2010.087 2516.817 C 2010.1016666666667 2524.2173333333335 2010.1163333333334 2531.6176666666665 2010.131 2539.018C 2007.0246666666667 2536.083666666667 2003.9183333333333 2533.1493333333333 2000.812 2530.215Z M 2011.026 2513.258 C 2011.0073333333332 2513.2656666666667 2010.9886666666666 2513.2733333333335 2010.97 2513.281 C 2007.424 2514.775 2003.664 2515.509 1999.778 2515.489 C 1995.8206001739945 2515.4672275790463 1991.9126207820514 2514.608065597309 1988.311 2512.968 C 1978.1457166065966 2508.3393873519417 1971.6514888045547 2498.167186160315 1971.731 2486.998 C 1971.79 2479.446 1974.786 2472.37 1980.167 2467.072 C 1985.494 2461.827 1992.526 2458.947 1999.993 2458.947 C 2000.0686666666666 2458.9473333333335 2000.1443333333334 2458.9476666666665 2000.22 2458.948 C 2015.809 2459.07 2028.393 2471.851 2028.271 2487.44C 2028.185685277726 2498.714955796053 2021.4086313842988 2508.861083768986 2011.026 2513.258Z"></path><path fill="#e5c5d0" stroke="none" fill-opacity="1" stroke-width="1" stroke-opacity="1" color="rgb(51, 51, 51)" fill-rule="evenodd" id="tSvg14661be50bb" d="M 2014.205 2482.712 C 2011.2536666666667 2482.259666666667 2008.3023333333333 2481.807333333333 2005.351 2481.355 C 2004.0513333333333 2478.668 2002.7516666666666 2475.981 2001.452 2473.294 C 2001.2031405638556 2472.7803933247405 2000.6846976290528 2472.4522011559006 2000.114 2472.447 C 2000.11 2472.447 2000.106 2472.447 2000.102 2472.447 C 1999.5351472118866 2472.447025350427 1999.0167058522911 2472.7665940236893 1998.762 2473.273 C 1997.4203333333332 2475.9393333333333 1996.0786666666668 2478.605666666667 1994.737 2481.272 C 1991.7803333333334 2481.678 1988.8236666666667 2482.084 1985.867 2482.49 C 1984.7218693098444 2482.649896722052 1984.1792559031344 2483.9894725093673 1984.8902958714907 2484.9012364166692 C 1984.9288828511953 2484.950716357252 1984.9705325075452 2484.9977296754296 1985.015 2485.042 C 1987.136 2487.142333333333 1989.257 2489.2426666666665 1991.378 2491.343 C 1990.8503333333333 2494.2806666666665 1990.3226666666667 2497.2183333333332 1989.795 2500.156 C 1989.5925035689327 2501.2935881939916 1990.6974186433144 2502.223789632105 1991.78384713389 2501.830362588589 C 1991.843793957507 2501.8086541174025 1991.9022967501824 2501.7831482562624 1991.959 2501.754 C 1994.6113333333333 2500.386 1997.2636666666667 2499.018 1999.916 2497.65 C 2002.548 2499.0596666666665 2005.18 2500.4693333333335 2007.812 2501.879 C 2008.3149723942327 2502.1493241877283 2008.9279603435962 2502.10975154863 2009.392 2501.777 C 2009.857 2501.445 2010.092 2500.878 2010 2500.315 C 2009.5186666666666 2497.3693333333335 2009.0373333333334 2494.4236666666666 2008.556 2491.478 C 2010.7093333333332 2489.411 2012.8626666666667 2487.344 2015.016 2485.277 C 2015.8491968217638 2484.477552447289 2015.5045174741551 2483.075935708538 2014.395577173632 2482.754089870894C 2014.3330325177599 2482.7359376429063 2014.2693720731904 2482.7218779325895 2014.205 2482.712Z M 2005.911 2489.859 C 2005.555091697572 2490.2009132467524 2005.3898627300239 2490.6958525063774 2005.469 2491.183 C 2005.8296666666668 2493.3886666666667 2006.1903333333332 2495.5943333333335 2006.551 2497.8 C 2004.5803333333333 2496.7446666666665 2002.6096666666667 2495.6893333333333 2000.639 2494.634 C 2000.2042784219452 2494.399078806001 1999.6813695654978 2494.394958464613 1999.243 2494.623 C 1997.2573333333332 2495.647 1995.2716666666668 2496.671 1993.286 2497.695 C 1993.681 2495.4956666666667 1994.076 2493.296333333333 1994.471 2491.097 C 1994.5582488653758 2490.611086026977 1994.4008141783086 2490.113353085471 1994.05 2489.766 C 1992.462 2488.1936666666666 1990.874 2486.6213333333335 1989.286 2485.049 C 1991.4996666666666 2484.745 1993.7133333333334 2484.441 1995.927 2484.137 C 1996.4162444096141 2484.0698335456586 1996.8410840696429 2483.766162945839 1997.063 2483.325 C 1998.0673333333334 2481.329 1999.0716666666667 2479.333 2000.076 2477.337 C 2001.049 2479.3483333333334 2002.022 2481.3596666666667 2002.995 2483.371 C 2003.21 2483.815 2003.63 2484.125 2004.118 2484.201 C 2006.3276666666666 2484.5396666666666 2008.5373333333334 2484.878333333333 2010.747 2485.217C 2009.135 2486.7643333333335 2007.523 2488.3116666666665 2005.911 2489.859Z"></path><defs> </defs></svg> 