<?xml version="1.0" encoding="UTF-8"?> <svg xmlns="http://www.w3.org/2000/svg" viewBox="1950 2450 100 100" width="100" height="100"><path fill="#e5c5d0" stroke="none" fill-opacity="1" stroke-width="1" stroke-opacity="1" color="rgb(51, 51, 51)" fill-rule="evenodd" id="tSvg76150863b7" d="M 2039.779 2462.839 C 2022.009 2462.839 2004.239 2462.839 1986.469 2462.839 C 1986.469 2470.166 1986.469 2477.493 1986.469 2484.82 C 1978.4746666666667 2484.82 1970.4803333333334 2484.82 1962.486 2484.82 C 1962.486 2499.1543333333334 1962.486 2513.4886666666666 1962.486 2527.823 C 1966.9513333333334 2527.823 1971.4166666666667 2527.823 1975.882 2527.823 C 1980.4766666666667 2532.682333333333 1985.0713333333333 2537.5416666666665 1989.666 2542.401 C 1989.6683333333333 2537.5416666666665 1989.6706666666666 2532.682333333333 1989.673 2527.823 C 1999.1953333333333 2527.823 2008.7176666666667 2527.823 2018.24 2527.823 C 2018.24 2520.4963333333335 2018.24 2513.1696666666667 2018.24 2505.843 C 2025.4196666666667 2505.843 2032.5993333333333 2505.843 2039.779 2505.843C 2039.779 2491.508333333333 2039.779 2477.1736666666666 2039.779 2462.839Z M 2015.241 2524.824 C 2005.7193333333335 2524.824 1996.1976666666667 2524.824 1986.676 2524.824 C 1986.6743333333334 2528.171333333333 1986.6726666666666 2531.518666666667 1986.671 2534.866 C 1983.5056666666667 2531.518666666667 1980.3403333333333 2528.171333333333 1977.175 2524.824 C 1973.279 2524.824 1969.383 2524.824 1965.487 2524.824 C 1965.487 2512.489666666667 1965.487 2500.155333333333 1965.487 2487.821 C 1972.4813333333334 2487.821 1979.4756666666667 2487.821 1986.47 2487.821 C 1986.47 2493.828666666667 1986.47 2499.836333333333 1986.47 2505.844 C 1990.3126666666667 2505.844 1994.1553333333334 2505.844 1997.998 2505.844 C 1997.998 2510.345 1997.998 2514.846 1997.998 2519.347 C 2002.584 2514.846 2007.17 2510.345 2011.756 2505.844 C 2012.9176666666667 2505.844 2014.0793333333334 2505.844 2015.241 2505.844C 2015.241 2512.170666666667 2015.241 2518.4973333333332 2015.241 2524.824Z M 2036.779 2502.844 C 2028.029 2502.844 2019.279 2502.844 2010.529 2502.844 C 2007.3516666666667 2505.9623333333334 2004.1743333333334 2509.0806666666667 2000.997 2512.199 C 2000.997 2509.0806666666667 2000.997 2505.9623333333334 2000.997 2502.844 C 1997.1543333333334 2502.844 1993.3116666666667 2502.844 1989.469 2502.844 C 1989.469 2490.509 1989.469 2478.174 1989.469 2465.839 C 2005.239 2465.839 2021.009 2465.839 2036.779 2465.839C 2036.779 2478.174 2036.779 2490.509 2036.779 2502.844Z"></path><path fill="#e5c5d0" stroke="none" fill-opacity="1" stroke-width="1" stroke-opacity="1" color="rgb(51, 51, 51)" fill-rule="evenodd" id="tSvg16a0624b922" d="M 2000.616 2479.348 C 2000.621 2479.348 2000.626 2479.348 2000.631 2479.348 C 2003.0356989983145 2479.334781440525 2004.9765467216296 2477.3787289320603 2004.971 2474.974 C 2004.967 2473.81 2004.51 2472.717 2003.683 2471.897 C 2002.856 2471.077 2001.749 2470.635 2000.597 2470.632 C 1999.439836859308 2470.63239749861 1998.3311288185516 2471.0966981898237 1997.519 2471.921 C 1996.7023149498086 2472.7390084772514 1996.2474220222778 2473.8501285718735 1996.256 2475.006C 1996.268643557101 2477.405785751637 1998.216182479835 2479.3452827947754 2000.616 2479.348Z M 1999.649 2474.034 C 1999.904 2473.776 2000.245 2473.634 2000.608 2473.633 C 2000.61 2473.633 2000.612 2473.633 2000.614 2473.633 C 2001.3621841471381 2473.631341456455 2001.969896689781 2474.2368148280657 2001.971 2474.985 C 2001.9726680909355 2475.73432844812 2001.3683139326802 2476.344046619332 2000.619 2476.349 C 2000.6173333333334 2476.349 2000.6156666666666 2476.349 2000.614 2476.349 C 1999.8658462214003 2476.347910157075 1999.2588471724125 2475.7431446808305 1999.255 2474.995C 1999.2524753091884 2474.6348553477483 1999.3943868641918 2474.2887208191 1999.649 2474.034Z M 2014.123 2479.348 C 2014.128 2479.348 2014.133 2479.348 2014.138 2479.348 C 2015.2945940970756 2479.3462209476534 2016.4024750364154 2478.8821137551813 2017.215 2478.059 C 2018.0320279060093 2477.2408105621607 2018.486958254877 2476.1292388615934 2018.478 2474.973 C 2018.4769953711407 2473.817231699471 2018.0135462070439 2472.7099230943045 2017.191 2471.898 C 2016.3767270566286 2471.0754782733998 2015.2633177387147 2470.6189263120527 2014.106 2470.633 C 2012.948042364406 2470.633823698 2011.838562672749 2471.0979961518183 2011.025 2471.922 C 2010.2085997459762 2472.740197728514 2009.753757769195 2473.851193371127 2009.762 2475.007C 2009.7757387084116 2477.406556090532 2011.7234061101017 2479.345289413366 2014.123 2479.348Z M 2013.156 2474.035 C 2013.412 2473.777 2013.753 2473.635 2014.118 2473.633 C 2014.12 2473.633 2014.122 2473.633 2014.124 2473.633 C 2014.483 2473.633 2014.8220000000001 2473.773 2015.077 2474.027 C 2015.334 2474.282 2015.476 2474.623 2015.478 2474.985 C 2015.478 2474.9856666666665 2015.478 2474.9863333333333 2015.478 2474.987 C 2015.479 2475.349 2015.34 2475.69 2015.085 2475.947 C 2014.83 2476.205 2014.489 2476.347 2014.127 2476.349 C 2014.1253333333334 2476.349 2014.1236666666666 2476.349 2014.122 2476.349 C 2013.3738462214003 2476.347910157075 2012.7668471724126 2475.7431446808305 2012.763 2474.995C 2012.760366520662 2474.635323962522 2012.9019061557358 2474.2895782894443 2013.156 2474.035Z"></path><defs> </defs></svg> 