<?xml version="1.0" encoding="UTF-8"?> <svg xmlns="http://www.w3.org/2000/svg" viewBox="1950 2450 100 100" width="100" height="100"><path fill="#ae919b" stroke="none" fill-opacity="1" stroke-width="5" stroke-opacity="1" color="rgb(51, 51, 51)" fill-rule="evenodd" id="tSvg72f581fc15" d="M 1991.17 2477.56 C 1990.5533333333333 2481.14 1989.9366666666667 2484.72 1989.32 2488.3 C 1989.1214071952677 2489.3292627385904 1989.5342142969835 2490.38075252789 1990.38 2491 C 1991.2112567047013 2491.6224008575214 1992.3236474878388 2491.7192990089134 1993.25 2491.25 C 1996.5833333333333 2489.5833333333335 1999.9166666666667 2487.9166666666665 2003.25 2486.25 C 2006.41 2487.8966666666665 2009.57 2489.5433333333335 2012.73 2491.19 C 2014.5866124003605 2492.190968802199 2016.8305756634163 2490.806732423394 2016.7691338743364 2488.6983745186008 C 2016.7653388880885 2488.568150620926 2016.7522610865244 2488.438363193607 2016.73 2488.31 C 2016.1133333333332 2484.7433333333333 2015.4966666666667 2481.1766666666667 2014.88 2477.61 C 2017.4733333333334 2475.0733333333333 2020.0666666666666 2472.536666666667 2022.66 2470 C 2024.1675025829668 2468.5357700673453 2023.5246162995677 2465.988706942481 2021.502804689424 2465.415286375688 C 2021.3869916534416 2465.3824398056113 2021.2691328308438 2465.3572894500912 2021.15 2465.34 C 2017.5333333333333 2464.8133333333335 2013.9166666666667 2464.286666666667 2010.3 2463.76 C 2008.6866666666667 2460.5066666666667 2007.0733333333333 2457.2533333333336 2005.46 2454 C 2004.9920916336002 2453.0727627225956 2004.0385722689157 2452.4913483993 2003 2452.5 C 2001.9650211411345 2452.495157188096 2001.016302931363 2453.0760052666124 2000.55 2454 C 1998.9333333333334 2457.2533333333336 1997.3166666666666 2460.5066666666667 1995.7 2463.76 C 1992.0833333333333 2464.28 1988.4666666666667 2464.8 1984.85 2465.32 C 1982.7673367573996 2465.601153252257 1981.7700295341947 2468.031423132155 1983.054847014306 2469.6944857816466 C 1983.1387546648177 2469.803095511614 1983.2307331118852 2469.905223145325 1983.33 2470C 1985.9433333333334 2472.52 1988.5566666666666 2475.04 1991.17 2477.56Z M 1996.9 2466.62 C 1997.377511160223 2466.5401985762633 1997.7871484463435 2466.2348326016686 1998 2465.8 C 1999.6666666666667 2462.4666666666667 2001.3333333333333 2459.133333333333 2003 2455.8 C 2004.6666666666667 2459.133333333333 2006.3333333333333 2462.4666666666667 2008 2465.8 C 2008.218749282218 2466.242655477138 2008.6413306976706 2466.5493074765463 2009.13 2466.62 C 2012.8233333333333 2467.153333333333 2016.5166666666667 2467.6866666666665 2020.21 2468.22 C 2017.5433333333333 2470.8 2014.8766666666668 2473.38 2012.21 2475.96 C 2011.8526058634507 2476.3034114817983 2011.6879239822865 2476.801199895676 2011.77 2477.29 C 2012.4 2480.94 2013.03 2484.59 2013.66 2488.24 C 2010.43 2486.556666666667 2007.2 2484.8733333333334 2003.97 2483.19 C 2003.540004421949 2482.969275756 2003.029995578051 2482.969275756 2002.6 2483.19 C 1999.2 2484.8966666666665 1995.8 2486.6033333333335 1992.4 2488.31 C 1993.0333333333333 2484.6433333333334 1993.6666666666667 2480.9766666666665 1994.3 2477.31 C 1994.3676515463817 2476.82267892634 1994.192023625249 2476.3331628060314 1993.83 2476 C 1991.1633333333334 2473.42 1988.4966666666667 2470.84 1985.83 2468.26C 1989.52 2467.713333333333 1993.21 2467.1666666666665 1996.9 2466.62Z M 2045 2497 C 2043.9855421098732 2495.828113420176 2042.5461839968148 2495.108434380182 2041 2495 C 2039.4534673690664 2494.893654712087 2037.930163171399 2495.4206746524974 2036.78 2496.46 C 2032.1633333333334 2500.6066666666666 2027.5466666666666 2504.753333333333 2022.93 2508.9 C 2022.8939323850477 2508.6235790526457 2022.8404932997096 2508.349703740576 2022.77 2508.08 C 2022.2990387225987 2506.3266041009156 2021.0866399053393 2504.8658826400865 2019.45 2504.08 C 2016.88 2503 2013.31 2503.5 2009.8600000000001 2504 C 2007.8421917220776 2504.3950902500906 2005.781155574866 2504.522854330927 2003.73 2504.38 C 2002.8171522247349 2504.150953758861 2001.9344190552254 2503.815313773804 2001.1 2503.38 C 1998.48 2502.21 1994.89 2500.61 1988.21 2502.08 C 1984.7612068705134 2502.9707672779873 1981.5932463309555 2504.7181331198212 1979 2507.16 C 1979 2505.94 1979 2504.72 1979 2503.5 C 1979 2502.671572875254 1978.3284271247462 2502 1977.5 2502 C 1973.1666666666667 2502 1968.8333333333333 2502 1964.5 2502 C 1963.6715728752538 2502 1963 2502.671572875254 1963 2503.5 C 1963 2513.1666666666665 1963 2522.8333333333335 1963 2532.5 C 1963 2533.328427124746 1963.6715728752538 2534 1964.5 2534 C 1968.8333333333333 2534 1973.1666666666667 2534 1977.5 2534 C 1978.3284271247462 2534 1979 2533.328427124746 1979 2532.5 C 1979 2531.806666666667 1979 2531.1133333333332 1979 2530.42 C 1981 2530.89 1990.08 2533 1996.79 2533 C 2003.79 2533 2012.35 2531.4 2017.62 2529.11 C 2027.33 2524.9 2043.32 2506.73 2044.62 2505.26C 2046.9619395361085 2503.063573641362 2047.1303816148395 2499.402174788574 2045 2497Z M 1976 2531 C 1972.6666666666667 2531 1969.3333333333333 2531 1966 2531 C 1966 2522.3333333333335 1966 2513.6666666666665 1966 2505 C 1969.3333333333333 2505 1972.6666666666667 2505 1976 2505C 1976 2513.6666666666665 1976 2522.3333333333335 1976 2531Z M 2042.54 2503.09 C 2042.4933333333333 2503.1366666666668 2042.4466666666667 2503.1833333333334 2042.4 2503.23 C 2042.23 2503.42 2025.71 2522.34 2016.4 2526.37 C 2011.5 2528.5 2003.42 2530 1996.79 2530 C 1989.79 2530 1979.46 2527.44 1979.36 2527.42 C 1979.2404410385648 2527.4054500745065 1979.1195589614354 2527.4054500745065 1979 2527.42 C 1979 2522.0866666666666 1979 2516.753333333333 1979 2511.42 C 1980.09 2510.17 1983.94 2506.11 1988.86 2505.03 C 1994.58 2503.78 1997.4 2505.03 1999.86 2506.14 C 2000.92129859291 2506.6627755490636 2002.0431332703438 2507.0523947742363 2003.2 2507.3 C 2005.5616706021756 2507.52276044107 2007.9431713023878 2507.4014958929974 2010.27 2506.94 C 2013.18 2506.54 2016.48 2506.08 2018.27 2506.83 C 2019.047624246816 2507.2769476208127 2019.6105784079343 2508.020335806232 2019.83 2508.89 C 2020.1247133018999 2510.0876394631114 2019.823048643323 2511.353886176592 2019.02 2512.29 C 2016.74 2515.35 2002.8700000000001 2519.93 1997.18 2519.48 C 1996.0252994611333 2519.3914729650814 1995.2077783080672 2520.586143569565 1995.7084619163393 2521.630407087446 C 1995.9408299815316 2522.1150514600445 1996.4141016300075 2522.4389144471647 1996.95 2522.48 C 1997.2833333333333 2522.48 1997.6166666666668 2522.48 1997.95 2522.48 C 2004.16 2522.48 2016.02 2518.82 2020.3600000000001 2515.16 C 2020.3966666666668 2515.14 2020.4333333333334 2515.12 2020.47 2515.1 C 2026.55 2509.633333333333 2032.63 2504.1666666666665 2038.71 2498.7 C 2039.2581112152284 2498.2117812108486 2039.97706392578 2497.960147754813 2040.71 2498 C 2041.485055217592 2498.0469675219438 2042.2073928541572 2498.4081363371674 2042.71 2499C 2043.778412535565 2500.1814847856604 2043.7027742052924 2502.0012540276052 2042.54 2503.09Z"></path><defs> </defs></svg> 